<mxfile host="65bd71144e">
    <diagram name="Page-1" id="w3Rp2KqtJRSP5pbtwvzK">
        <mxGraphModel dx="736" dy="547" grid="1" gridSize="10" guides="1" tooltips="1" connect="1" arrows="1" fold="1" page="1" pageScale="1" pageWidth="850" pageHeight="1100" math="0" shadow="0">
            <root>
                <mxCell id="0"/>
                <mxCell id="1" parent="0"/>
                <mxCell id="nBi9E348kbQNYRot8v6M-1" value="Actor" style="shape=umlActor;verticalLabelPosition=bottom;verticalAlign=top;html=1;" parent="1" vertex="1">
                    <mxGeometry x="130" y="200" width="30" height="60" as="geometry"/>
                </mxCell>
                <mxCell id="nBi9E348kbQNYRot8v6M-2" value="Actor" style="shape=umlActor;verticalLabelPosition=bottom;verticalAlign=top;html=1;" parent="1" vertex="1">
                    <mxGeometry x="125" y="356" width="30" height="60" as="geometry"/>
                </mxCell>
                <mxCell id="nBi9E348kbQNYRot8v6M-3" value="Actor" style="shape=umlActor;verticalLabelPosition=bottom;verticalAlign=top;html=1;" parent="1" vertex="1">
                    <mxGeometry x="630" y="336" width="30" height="60" as="geometry"/>
                </mxCell>
                <mxCell id="nBi9E348kbQNYRot8v6M-4" value="Actor" style="shape=umlActor;verticalLabelPosition=bottom;verticalAlign=top;html=1;" parent="1" vertex="1">
                    <mxGeometry x="630" y="126" width="30" height="60" as="geometry"/>
                </mxCell>
                <mxCell id="nBi9E348kbQNYRot8v6M-5" value="User" style="text;align=center;fontStyle=1;verticalAlign=middle;spacingLeft=3;spacingRight=3;strokeColor=none;rotatable=0;points=[[0,0.5],[1,0.5]];portConstraint=eastwest;html=1;" parent="1" vertex="1">
                    <mxGeometry x="105" y="177" width="80" height="26" as="geometry"/>
                </mxCell>
                <mxCell id="nBi9E348kbQNYRot8v6M-6" value="Admin" style="text;align=center;fontStyle=1;verticalAlign=middle;spacingLeft=3;spacingRight=3;strokeColor=none;rotatable=0;points=[[0,0.5],[1,0.5]];portConstraint=eastwest;html=1;" parent="1" vertex="1">
                    <mxGeometry x="100" y="330" width="80" height="26" as="geometry"/>
                </mxCell>
                <mxCell id="nBi9E348kbQNYRot8v6M-7" value="LLM" style="text;align=center;fontStyle=1;verticalAlign=middle;spacingLeft=3;spacingRight=3;strokeColor=none;rotatable=0;points=[[0,0.5],[1,0.5]];portConstraint=eastwest;html=1;" parent="1" vertex="1">
                    <mxGeometry x="605" y="310" width="80" height="26" as="geometry"/>
                </mxCell>
                <mxCell id="nBi9E348kbQNYRot8v6M-8" value="Database" style="text;align=center;fontStyle=1;verticalAlign=middle;spacingLeft=3;spacingRight=3;strokeColor=none;rotatable=0;points=[[0,0.5],[1,0.5]];portConstraint=eastwest;html=1;" parent="1" vertex="1">
                    <mxGeometry x="605" y="100" width="80" height="26" as="geometry"/>
                </mxCell>
                <mxCell id="nBi9E348kbQNYRot8v6M-9" value="Login" style="ellipse;whiteSpace=wrap;html=1;" parent="1" vertex="1">
                    <mxGeometry x="320" y="120" width="140" height="40" as="geometry"/>
                </mxCell>
                <mxCell id="nBi9E348kbQNYRot8v6M-10" value="View Movies" style="ellipse;whiteSpace=wrap;html=1;" parent="1" vertex="1">
                    <mxGeometry x="320" y="186" width="140" height="30" as="geometry"/>
                </mxCell>
                <mxCell id="nBi9E348kbQNYRot8v6M-11" value="View Reviews" style="ellipse;whiteSpace=wrap;html=1;" parent="1" vertex="1">
                    <mxGeometry x="320" y="240" width="140" height="30" as="geometry"/>
                </mxCell>
                <mxCell id="nBi9E348kbQNYRot8v6M-12" value="Summarize Reviews" style="ellipse;whiteSpace=wrap;html=1;" parent="1" vertex="1">
                    <mxGeometry x="320" y="290" width="140" height="30" as="geometry"/>
                </mxCell>
                <mxCell id="nBi9E348kbQNYRot8v6M-13" value="Create Reviews" style="ellipse;whiteSpace=wrap;html=1;" parent="1" vertex="1">
                    <mxGeometry x="320" y="336" width="140" height="34" as="geometry"/>
                </mxCell>
                <mxCell id="nBi9E348kbQNYRot8v6M-15" value="Retrieve Reviews" style="ellipse;whiteSpace=wrap;html=1;" parent="1" vertex="1">
                    <mxGeometry x="320" y="440" width="140" height="30" as="geometry"/>
                </mxCell>
                <mxCell id="nBi9E348kbQNYRot8v6M-16" value="" style="endArrow=classic;html=1;rounded=0;exitX=1;exitY=0.3333333333333333;exitDx=0;exitDy=0;exitPerimeter=0;entryX=0;entryY=0.5;entryDx=0;entryDy=0;" parent="1" source="nBi9E348kbQNYRot8v6M-1" target="nBi9E348kbQNYRot8v6M-9" edge="1">
                    <mxGeometry width="50" height="50" relative="1" as="geometry">
                        <mxPoint x="400" y="320" as="sourcePoint"/>
                        <mxPoint x="450" y="270" as="targetPoint"/>
                    </mxGeometry>
                </mxCell>
                <mxCell id="nBi9E348kbQNYRot8v6M-18" value="" style="endArrow=classic;html=1;rounded=0;exitX=1;exitY=0.5;exitDx=0;exitDy=0;entryX=0.5;entryY=0.5;entryDx=0;entryDy=0;entryPerimeter=0;" parent="1" source="nBi9E348kbQNYRot8v6M-9" target="nBi9E348kbQNYRot8v6M-4" edge="1">
                    <mxGeometry width="50" height="50" relative="1" as="geometry">
                        <mxPoint x="170" y="230" as="sourcePoint"/>
                        <mxPoint x="330" y="150" as="targetPoint"/>
                    </mxGeometry>
                </mxCell>
                <mxCell id="nBi9E348kbQNYRot8v6M-19" value="" style="endArrow=classic;html=1;rounded=0;entryX=0;entryY=0.5;entryDx=0;entryDy=0;" parent="1" target="nBi9E348kbQNYRot8v6M-10" edge="1">
                    <mxGeometry width="50" height="50" relative="1" as="geometry">
                        <mxPoint x="160" y="220" as="sourcePoint"/>
                        <mxPoint x="450" y="270" as="targetPoint"/>
                    </mxGeometry>
                </mxCell>
                <mxCell id="nBi9E348kbQNYRot8v6M-20" value="" style="endArrow=classic;html=1;rounded=0;exitX=1;exitY=0.5;exitDx=0;exitDy=0;entryX=0.507;entryY=0.623;entryDx=0;entryDy=0;entryPerimeter=0;" parent="1" source="nBi9E348kbQNYRot8v6M-10" target="nBi9E348kbQNYRot8v6M-4" edge="1">
                    <mxGeometry width="50" height="50" relative="1" as="geometry">
                        <mxPoint x="180" y="240" as="sourcePoint"/>
                        <mxPoint x="340" y="160" as="targetPoint"/>
                    </mxGeometry>
                </mxCell>
                <mxCell id="nBi9E348kbQNYRot8v6M-21" value="" style="endArrow=classic;html=1;rounded=0;entryX=0;entryY=0.5;entryDx=0;entryDy=0;" parent="1" target="nBi9E348kbQNYRot8v6M-11" edge="1">
                    <mxGeometry width="50" height="50" relative="1" as="geometry">
                        <mxPoint x="160" y="220" as="sourcePoint"/>
                        <mxPoint x="450" y="270" as="targetPoint"/>
                    </mxGeometry>
                </mxCell>
                <mxCell id="nBi9E348kbQNYRot8v6M-22" value="" style="endArrow=classic;html=1;rounded=0;exitX=1;exitY=0.5;exitDx=0;exitDy=0;entryX=0.533;entryY=0.623;entryDx=0;entryDy=0;entryPerimeter=0;" parent="1" source="nBi9E348kbQNYRot8v6M-11" target="nBi9E348kbQNYRot8v6M-4" edge="1">
                    <mxGeometry width="50" height="50" relative="1" as="geometry">
                        <mxPoint x="190" y="250" as="sourcePoint"/>
                        <mxPoint x="350" y="170" as="targetPoint"/>
                    </mxGeometry>
                </mxCell>
                <mxCell id="nBi9E348kbQNYRot8v6M-23" value="" style="endArrow=classic;html=1;rounded=0;entryX=0;entryY=0.5;entryDx=0;entryDy=0;" parent="1" target="nBi9E348kbQNYRot8v6M-12" edge="1">
                    <mxGeometry width="50" height="50" relative="1" as="geometry">
                        <mxPoint x="160" y="220" as="sourcePoint"/>
                        <mxPoint x="360" y="180" as="targetPoint"/>
                    </mxGeometry>
                </mxCell>
                <mxCell id="nBi9E348kbQNYRot8v6M-24" value="" style="endArrow=classic;html=1;rounded=0;exitX=1;exitY=0.5;exitDx=0;exitDy=0;entryX=0.293;entryY=0.337;entryDx=0;entryDy=0;entryPerimeter=0;" parent="1" source="nBi9E348kbQNYRot8v6M-12" target="nBi9E348kbQNYRot8v6M-3" edge="1">
                    <mxGeometry width="50" height="50" relative="1" as="geometry">
                        <mxPoint x="210" y="270" as="sourcePoint"/>
                        <mxPoint x="370" y="190" as="targetPoint"/>
                    </mxGeometry>
                </mxCell>
                <mxCell id="nBi9E348kbQNYRot8v6M-25" value="" style="endArrow=classic;html=1;rounded=0;entryX=0;entryY=0.5;entryDx=0;entryDy=0;" parent="1" target="nBi9E348kbQNYRot8v6M-13" edge="1">
                    <mxGeometry width="50" height="50" relative="1" as="geometry">
                        <mxPoint x="160" y="220" as="sourcePoint"/>
                        <mxPoint x="380" y="200" as="targetPoint"/>
                    </mxGeometry>
                </mxCell>
                <mxCell id="nBi9E348kbQNYRot8v6M-26" value="" style="endArrow=classic;html=1;rounded=0;exitX=1;exitY=0.5;exitDx=0;exitDy=0;entryX=0.507;entryY=0.637;entryDx=0;entryDy=0;entryPerimeter=0;" parent="1" source="nBi9E348kbQNYRot8v6M-13" target="nBi9E348kbQNYRot8v6M-4" edge="1">
                    <mxGeometry width="50" height="50" relative="1" as="geometry">
                        <mxPoint x="230" y="290" as="sourcePoint"/>
                        <mxPoint x="390" y="210" as="targetPoint"/>
                    </mxGeometry>
                </mxCell>
                <mxCell id="nBi9E348kbQNYRot8v6M-28" value="" style="endArrow=classic;html=1;rounded=0;exitX=1;exitY=0.5;exitDx=0;exitDy=0;entryX=0.5;entryY=0.5;entryDx=0;entryDy=0;entryPerimeter=0;" parent="1" source="nBi9E348kbQNYRot8v6M-15" target="nBi9E348kbQNYRot8v6M-3" edge="1">
                    <mxGeometry width="50" height="50" relative="1" as="geometry">
                        <mxPoint x="400" y="320" as="sourcePoint"/>
                        <mxPoint x="450" y="270" as="targetPoint"/>
                    </mxGeometry>
                </mxCell>
                <mxCell id="nBi9E348kbQNYRot8v6M-29" value="" style="endArrow=classic;html=1;rounded=0;exitX=0.567;exitY=0.737;exitDx=0;exitDy=0;exitPerimeter=0;entryX=0;entryY=0.5;entryDx=0;entryDy=0;" parent="1" source="nBi9E348kbQNYRot8v6M-2" edge="1">
                    <mxGeometry width="50" height="50" relative="1" as="geometry">
                        <mxPoint x="400" y="440" as="sourcePoint"/>
                        <mxPoint x="320" y="405" as="targetPoint"/>
                    </mxGeometry>
                </mxCell>
                <mxCell id="nBi9E348kbQNYRot8v6M-30" value="" style="endArrow=classic;html=1;rounded=0;exitX=0.433;exitY=0.617;exitDx=0;exitDy=0;exitPerimeter=0;entryX=0;entryY=0.5;entryDx=0;entryDy=0;" parent="1" source="nBi9E348kbQNYRot8v6M-2" target="nBi9E348kbQNYRot8v6M-13" edge="1">
                    <mxGeometry width="50" height="50" relative="1" as="geometry">
                        <mxPoint x="400" y="440" as="sourcePoint"/>
                        <mxPoint x="450" y="390" as="targetPoint"/>
                    </mxGeometry>
                </mxCell>
                <mxCell id="nBi9E348kbQNYRot8v6M-31" value="" style="endArrow=classic;html=1;rounded=0;exitX=0.5;exitY=0.5;exitDx=0;exitDy=0;exitPerimeter=0;entryX=0;entryY=0.5;entryDx=0;entryDy=0;" parent="1" source="nBi9E348kbQNYRot8v6M-2" target="nBi9E348kbQNYRot8v6M-12" edge="1">
                    <mxGeometry width="50" height="50" relative="1" as="geometry">
                        <mxPoint x="400" y="440" as="sourcePoint"/>
                        <mxPoint x="450" y="390" as="targetPoint"/>
                    </mxGeometry>
                </mxCell>
                <mxCell id="nBi9E348kbQNYRot8v6M-32" value="" style="endArrow=classic;html=1;rounded=0;exitX=0.5;exitY=0.5;exitDx=0;exitDy=0;exitPerimeter=0;entryX=0;entryY=0.5;entryDx=0;entryDy=0;" parent="1" source="nBi9E348kbQNYRot8v6M-2" target="nBi9E348kbQNYRot8v6M-11" edge="1">
                    <mxGeometry width="50" height="50" relative="1" as="geometry">
                        <mxPoint x="400" y="440" as="sourcePoint"/>
                        <mxPoint x="450" y="390" as="targetPoint"/>
                    </mxGeometry>
                </mxCell>
                <mxCell id="nBi9E348kbQNYRot8v6M-33" value="" style="endArrow=classic;html=1;rounded=0;exitX=0.5;exitY=0.5;exitDx=0;exitDy=0;exitPerimeter=0;entryX=0;entryY=0.5;entryDx=0;entryDy=0;" parent="1" source="nBi9E348kbQNYRot8v6M-2" target="nBi9E348kbQNYRot8v6M-10" edge="1">
                    <mxGeometry width="50" height="50" relative="1" as="geometry">
                        <mxPoint x="400" y="440" as="sourcePoint"/>
                        <mxPoint x="450" y="390" as="targetPoint"/>
                    </mxGeometry>
                </mxCell>
                <mxCell id="nBi9E348kbQNYRot8v6M-34" value="" style="endArrow=classic;html=1;rounded=0;entryX=0;entryY=0.5;entryDx=0;entryDy=0;" parent="1" target="nBi9E348kbQNYRot8v6M-9" edge="1">
                    <mxGeometry width="50" height="50" relative="1" as="geometry">
                        <mxPoint x="140" y="390" as="sourcePoint"/>
                        <mxPoint x="450" y="290" as="targetPoint"/>
                    </mxGeometry>
                </mxCell>
                <mxCell id="2" value="Sign Up" style="ellipse;whiteSpace=wrap;html=1;" vertex="1" parent="1">
                    <mxGeometry x="320" y="390" width="140" height="40" as="geometry"/>
                </mxCell>
                <mxCell id="3" value="" style="endArrow=classic;html=1;exitX=1;exitY=0.3333333333333333;exitDx=0;exitDy=0;exitPerimeter=0;entryX=0;entryY=0.5;entryDx=0;entryDy=0;" edge="1" parent="1" source="nBi9E348kbQNYRot8v6M-1" target="2">
                    <mxGeometry width="50" height="50" relative="1" as="geometry">
                        <mxPoint x="350" y="310" as="sourcePoint"/>
                        <mxPoint x="400" y="260" as="targetPoint"/>
                    </mxGeometry>
                </mxCell>
                <mxCell id="5" value="" style="endArrow=classic;html=1;exitX=1;exitY=0.5;exitDx=0;exitDy=0;entryX=0.5;entryY=0.5;entryDx=0;entryDy=0;entryPerimeter=0;" edge="1" parent="1" source="2" target="nBi9E348kbQNYRot8v6M-4">
                    <mxGeometry width="50" height="50" relative="1" as="geometry">
                        <mxPoint x="350" y="310" as="sourcePoint"/>
                        <mxPoint x="400" y="260" as="targetPoint"/>
                    </mxGeometry>
                </mxCell>
                <mxCell id="6" value="Continue as guest" style="ellipse;whiteSpace=wrap;html=1;" vertex="1" parent="1">
                    <mxGeometry x="330" y="70" width="120" height="30" as="geometry"/>
                </mxCell>
                <mxCell id="7" value="" style="endArrow=classic;html=1;entryX=0;entryY=0.5;entryDx=0;entryDy=0;" edge="1" parent="1" target="6">
                    <mxGeometry width="50" height="50" relative="1" as="geometry">
                        <mxPoint x="160" y="220" as="sourcePoint"/>
                        <mxPoint x="400" y="260" as="targetPoint"/>
                    </mxGeometry>
                </mxCell>
            </root>
        </mxGraphModel>
    </diagram>
</mxfile>